<?xml version="1.0" standalone="no"?><!DOCTYPE svg PUBLIC "-//W3C//DTD SVG 1.1//EN" "http://www.w3.org/Graphics/SVG/1.1/DTD/svg11.dtd"><svg t="1619521553162" class="icon" viewBox="0 0 1024 1024" version="1.1" xmlns="http://www.w3.org/2000/svg" p-id="9513" xmlns:xlink="http://www.w3.org/1999/xlink" width="200" height="200"><defs><style type="text/css"></style></defs><path d="M941.714286 832H155.428571V118.857143c0-5.028571-4.114286-9.142857-9.142857-9.142857h-64c-5.028571 0-9.142857 4.114286-9.142857 9.142857v786.285714c0 5.028571 4.114286 9.142857 9.142857 9.142857h859.428572c5.028571 0 9.142857-4.114286 9.142857-9.142857v-64c0-5.028571-4.114286-9.142857-9.142857-9.142857z m-685.714286-91.428571h64c5.028571 0 9.142857-4.114286 9.142857-9.142858V566.857143c0-5.028571-4.114286-9.142857-9.142857-9.142857h-64c-5.028571 0-9.142857 4.114286-9.142857 9.142857v164.571428c0 5.028571 4.114286 9.142857 9.142857 9.142858z m173.714286 0h64c5.028571 0 9.142857-4.114286 9.142857-9.142858V365.714286c0-5.028571-4.114286-9.142857-9.142857-9.142857h-64c-5.028571 0-9.142857 4.114286-9.142857 9.142857v365.714285c0 5.028571 4.114286 9.142857 9.142857 9.142858z m173.714285 0h64c5.028571 0 9.142857-4.114286 9.142858-9.142858V454.857143c0-5.028571-4.114286-9.142857-9.142858-9.142857h-64c-5.028571 0-9.142857 4.114286-9.142857 9.142857v276.571428c0 5.028571 4.114286 9.142857 9.142857 9.142858z m173.714286 0h64c5.028571 0 9.142857-4.114286 9.142857-9.142858V274.285714c0-5.028571-4.114286-9.142857-9.142857-9.142857h-64c-5.028571 0-9.142857 4.114286-9.142857 9.142857v457.142857c0 5.028571 4.114286 9.142857 9.142857 9.142858z" p-id="9514"></path></svg>