<?xml version="1.0" standalone="no"?><!DOCTYPE svg PUBLIC "-//W3C//DTD SVG 1.1//EN" "http://www.w3.org/Graphics/SVG/1.1/DTD/svg11.dtd"><svg t="1660290302913" class="icon" viewBox="0 0 1024 1024" version="1.1" xmlns="http://www.w3.org/2000/svg" p-id="3076" xmlns:xlink="http://www.w3.org/1999/xlink" width="200" height="200"><defs><style type="text/css">@font-face { font-family: feedback-iconfont; src: url("//at.alicdn.com/t/font_1031158_u69w8yhxdu.woff2?t=1630033759944") format("woff2"), url("//at.alicdn.com/t/font_1031158_u69w8yhxdu.woff?t=1630033759944") format("woff"), url("//at.alicdn.com/t/font_1031158_u69w8yhxdu.ttf?t=1630033759944") format("truetype"); }
</style></defs><path d="M516.437333 42.666667a42.666667 42.666667 0 0 1 42.666667 42.666666L558.933333 666.709333l261.12-236.032a42.666667 42.666667 0 0 1 57.258667 0l4.778667 4.266667a40.704 40.704 0 0 1 0 60.416L543.658667 801.28a42.666667 42.666667 0 0 1-31.573334 10.837333 42.666667 42.666667 0 0 1-31.744-10.837333L141.824 495.36a40.704 40.704 0 0 1 0-60.330667l4.778667-4.352a42.666667 42.666667 0 0 1 57.173333 0L464.64 666.453333V85.333333a42.666667 42.666667 0 0 1 42.666667-42.666666h9.130666zM889.514667 938.666667a42.666667 42.666667 0 0 1-42.666667 42.666666H176.981333a42.666667 42.666667 0 0 1 0-85.333333h669.866667a42.666667 42.666667 0 0 1 42.666667 42.666667z" fill="#755DD7" p-id="3077"></path></svg>