<?xml version="1.0" standalone="no"?><!DOCTYPE svg PUBLIC "-//W3C//DTD SVG 1.1//EN" "http://www.w3.org/Graphics/SVG/1.1/DTD/svg11.dtd"><svg t="1642128356647" class="icon" viewBox="0 0 1109 1024" version="1.1" xmlns="http://www.w3.org/2000/svg" p-id="1789" xmlns:xlink="http://www.w3.org/1999/xlink" width="216.6015625" height="200"><defs><style type="text/css"></style></defs><path d="M994.007411 624.314987v284.319057H115.280626V624.314987a57.682978 57.682978 0 0 0-115.280626 0v330.994485A69.031848 69.031848 0 0 0 68.775858 1024h971.736321a69.031848 69.031848 0 0 0 68.775858-68.690528v-331.079815a57.682978 57.682978 0 0 0-115.280626 0v0.08533zM513.941681 16.681132l-215.03122 215.03122a57.768308 57.768308 0 0 0 0 81.404676c22.52708 22.44175 58.877596 22.44175 81.404676 0l112.294081-112.123422v412.39916c0 34.04661 27.98819 61.864141 61.949471 61.864141a62.0348 62.0348 0 0 0 61.778811-61.864141V200.993606L728.716911 313.287687c22.52708 22.44175 58.877596 22.44175 81.490006 0a57.768308 57.768308 0 0 0 0-81.404676L595.346357 16.937122a57.682978 57.682978 0 0 0-81.404676-0.17066V16.681132z" p-id="1790"></path></svg>