<?xml version="1.0" standalone="no"?><!DOCTYPE svg PUBLIC "-//W3C//DTD SVG 1.1//EN" "http://www.w3.org/Graphics/SVG/1.1/DTD/svg11.dtd"><svg class="icon" width="200px" height="200.00px" viewBox="0 0 1024 1024" version="1.1" xmlns="http://www.w3.org/2000/svg"><path d="M695.715 391.884h-367.689c-16.937 0-30.641 13.703-30.641 30.641s13.704 30.641 30.641 30.641h367.689c16.937 0 30.641-13.704 30.641-30.641s-13.704-30.641-30.641-30.641zM695.715 269.317h-367.689c-16.937 0-30.641 13.704-30.641 30.641s13.704 30.641 30.641 30.641h367.689c0.008 0 0.012 0 0.020 0 16.912 0 30.621-13.71 30.621-30.621 0-0.007 0-0.013 0-0.020 0-0.005 0-0.008 0-0.014 0-16.914-13.713-30.626-30.626-30.626-0.007 0-0.009 0-0.017 0zM848.918 632.972v-424.937c0-33.841-27.437-61.282-61.282-61.282h-551.538c-33.841 0-61.282 27.442-61.282 61.282v612.819c0 33.845 27.442 61.282 61.282 61.282h361.442c1.854 0.401 3.986 0.628 6.17 0.628 8.458 0 16.114-3.431 21.653-8.978l214.875-214.875c5.549-5.535 8.983-13.191 8.983-21.648 0-1.514-0.11-3.002-0.323-4.458zM634.434 778.064v-110.417h110.417l-110.417 110.417zM787.637 606.366h-183.845c-0.006 0-0.008 0-0.015 0-16.914 0-30.626 13.713-30.626 30.626 0 0.007 0 0.009 0 0.017l0.005 0.162-0.005 0.163v183.514h-306.407c-0.006 0-0.008 0-0.015 0-16.913 0-30.626-13.713-30.626-30.626 0-0.007 0-0.009 0-0.017v-551.528c0-0.006 0-0.008 0-0.015 0-16.914 13.713-30.626 30.626-30.626 0.007 0 0.009 0 0.017 0h490.252c0.007 0 0.012 0 0.020 0 16.912 0 30.622 13.71 30.622 30.622 0 0.007 0 0.013 0 0.020v367.688z"  /></svg>