<?xml version="1.0" standalone="no"?><!DOCTYPE svg PUBLIC "-//W3C//DTD SVG 1.1//EN" "http://www.w3.org/Graphics/SVG/1.1/DTD/svg11.dtd"><svg t="1600334397852" class="icon" viewBox="0 0 1024 1024" version="1.1" xmlns="http://www.w3.org/2000/svg" p-id="7351" xmlns:xlink="http://www.w3.org/1999/xlink" width="128" height="128"><defs><style type="text/css"></style></defs><path d="M512 0C230.4 0 0 230.4 0 512s230.4 512 512 512 512-230.4 512-512S793.6 0 512 0zM512 960c-249.6 0-448-198.4-448-448 0-249.6 198.4-448 448-448s448 198.4 448 448C960 761.6 761.6 960 512 960z" p-id="7352"></path><path d="M467.2 748.8l89.6 0 0 89.6-89.6 0 0-89.6Z" p-id="7353"></path><path d="M512 185.6c-57.6 0-108.8 12.8-140.8 44.8s-57.6 76.8-64 134.4L384 377.6c6.4-44.8 19.2-76.8 44.8-96C454.4 262.4 480 249.6 512 249.6c32 0 64 12.8 89.6 32C627.2 307.2 640 332.8 640 364.8 640 384 633.6 396.8 627.2 416 614.4 428.8 601.6 448 569.6 473.6 544 492.8 524.8 512 518.4 524.8 499.2 544 492.8 556.8 486.4 576c-6.4 25.6-12.8 51.2-12.8 83.2 0 6.4 0 12.8 0 25.6l76.8 0c0-32 0-51.2 6.4-70.4S563.2 582.4 569.6 576c6.4-12.8 25.6-25.6 51.2-51.2 38.4-32 64-64 76.8-83.2s19.2-51.2 19.2-76.8c0-51.2-19.2-89.6-57.6-121.6C627.2 204.8 576 185.6 512 185.6z" p-id="7354"></path></svg>