<?xml version="1.0" standalone="no"?><!DOCTYPE svg PUBLIC "-//W3C//DTD SVG 1.1//EN" "http://www.w3.org/Graphics/SVG/1.1/DTD/svg11.dtd"><svg t="1642128362843" class="icon" viewBox="0 0 1024 1024" version="1.1" xmlns="http://www.w3.org/2000/svg" p-id="1916" xmlns:xlink="http://www.w3.org/1999/xlink" width="200" height="200"><defs><style type="text/css"></style></defs><path d="M931.2 575.8h-63.3c-4.6 0-8.4 3.7-8.4 8.4V862h-697V299.2h271.9c4.6 0 8.4-3.7 8.4-8.4v-63.3c0-4.6-3.7-8.4-8.4-8.4H122.6c-22.1 0-40 17.9-40 40v642.7c0 22.1 17.9 40 40 40h777c22.1 0 40-17.9 40-40V584.2c0-4.7-3.8-8.4-8.4-8.4z" p-id="1917"></path><path d="M400.8 533.1c-2.3-4-7.4-5.4-11.4-3.1l-54.8 31.6c-4 2.3-5.4 7.4-3.1 11.4l110.3 191.1c5.3 9.2 14 15.9 24.3 18.6 3.4 0.9 6.9 1.4 10.4 1.4 7 0 13.9-1.8 20-5.4L702 660.3c4-2.3 5.4-7.4 3.1-11.4L673.5 594c-2.3-4-7.4-5.4-11.4-3.1l-120.7 69.7c22-68 59-153.9 108.9-236.5 54.9-91 144.1-209.3 259.5-262.1 4.1-1.9 6-6.7 4.2-10.9l-25-58c-1.8-4.3-6.9-6.3-11.1-4.3-134.7 61-235.2 193.1-296.2 294.2-56.8 94-95.6 187-118.2 258.6l-62.7-108.5z" p-id="1918"></path></svg>