<?xml version="1.0" encoding="UTF-8"?>
<svg width="20px" height="20px" viewBox="0 0 20 20" xmlns="http://www.w3.org/2000/svg" xmlns:xlink="http://www.w3.org/1999/xlink" version="1.1">
 <!-- Generated by Pixelmator Pro 2.0.8 -->
 <path id="Path" d="M10.787 17.875 L8.82 17.875 C8.611 17.875 8.411 17.792 8.263 17.644 8.115 17.496 8.032 17.296 8.032 17.087 L8.032 15.512 C8.032 15.303 8.115 15.103 8.263 14.955 8.411 14.808 8.611 14.725 8.82 14.725 L10.788 14.725 C10.997 14.725 11.197 14.808 11.345 14.955 11.493 15.103 11.576 15.303 11.576 15.512 L11.576 16.1 C13.583 15.91 14.332 14.857 14.332 11.72 L14.332 9.606 14.334 9.606 14.334 8.063 C14.334 5.75 12.257 3.897 10.001 3.897 7.745 3.897 5.667 5.75 5.667 8.063 L5.667 11.969 C5.666 12.404 5.314 12.756 4.879 12.756 L3.306 12.756 C2.993 12.756 2.692 12.632 2.471 12.41 2.249 12.189 2.125 11.888 2.125 11.575 L2.125 9.213 C2.125 8.9 2.249 8.599 2.471 8.377 2.692 8.156 2.993 8.031 3.306 8.031 L4.094 8.031 C4.11 4.768 6.736 2.125 10 2.125 13.264 2.125 15.889 4.768 15.906 8.031 L16.694 8.031 C17.346 8.031 17.875 8.56 17.875 9.212 L17.875 11.575 C17.874 12.227 17.346 12.755 16.694 12.756 L15.874 12.756 C15.624 16.511 13.936 17.875 10.788 17.875 Z" fill="#595959" fill-opacity="1" stroke="none"/>
 <path id="Path-1" d="M8.819 17.875 L10.787 17.875 C13.56 17.875 15.2 16.817 15.723 14 L14.119 14 C13.773 15.407 12.984 15.966 11.575 16.1 L11.575 15.512 C11.575 15.077 11.223 14.725 10.788 14.725 L8.818 14.725 C8.384 14.726 8.032 15.078 8.031 15.512 L8.031 17.087 C8.031 17.296 8.114 17.497 8.262 17.645 8.409 17.792 8.61 17.875 8.819 17.875 Z" fill="#755DD7" fill-opacity="1" stroke="none"/>
</svg>
