<?xml version="1.0" standalone="no"?><!DOCTYPE svg PUBLIC "-//W3C//DTD SVG 1.1//EN" "http://www.w3.org/Graphics/SVG/1.1/DTD/svg11.dtd"><svg t="1619522281184" class="icon" viewBox="0 0 1024 1024" version="1.1" xmlns="http://www.w3.org/2000/svg" p-id="10045" xmlns:xlink="http://www.w3.org/1999/xlink" width="200" height="200"><defs><style type="text/css"></style></defs><path d="M713.142857 228.571429c0-5.028571-4.114286-9.142857-9.142857-9.142858H265.142857c-5.028571 0-9.142857 4.114286-9.142857 9.142858v54.857142c0 5.028571 4.114286 9.142857 9.142857 9.142858h438.857143c5.028571 0 9.142857-4.114286 9.142857-9.142858v-54.857142z m-9.142857 155.428571H265.142857c-5.028571 0-9.142857 4.114286-9.142857 9.142857v54.857143c0 5.028571 4.114286 9.142857 9.142857 9.142857h438.857143c5.028571 0 9.142857-4.114286 9.142857-9.142857v-54.857143c0-5.028571-4.114286-9.142857-9.142857-9.142857zM475.428571 548.571429H265.142857c-5.028571 0-9.142857 4.114286-9.142857 9.142857v54.857143c0 5.028571 4.114286 9.142857 9.142857 9.142857h210.285714c5.028571 0 9.142857-4.114286 9.142858-9.142857v-54.857143c0-5.028571-4.114286-9.142857-9.142858-9.142857z m-54.857142 352H164.571429V96h640v393.142857c0 5.028571 4.114286 9.142857 9.142857 9.142857h64c5.028571 0 9.142857-4.114286 9.142857-9.142857V50.285714c0-20.228571-16.342857-36.571429-36.571429-36.571428H118.857143c-20.228571 0-36.571429 16.342857-36.571429 36.571428v896c0 20.228571 16.342857 36.571429 36.571429 36.571429h301.714286c5.028571 0 9.142857-4.114286 9.142857-9.142857v-64c0-5.028571-4.114286-9.142857-9.142857-9.142857z m407.771428-85.028572c33.142857-30.057143 53.942857-73.485714 53.942857-121.828571 0-90.857143-73.714286-164.571429-164.571428-164.571429s-164.571429 73.714286-164.571429 164.571429c0 48.342857 20.8 91.771429 53.942857 121.828571-65.142857 37.142857-109.942857 105.942857-113.371428 185.257143-0.228571 5.142857 4 9.485714 9.142857 9.485714h54.971428c4.8 0 8.8-3.771429 9.142858-8.685714C571.428571 922.514286 637.371429 859.428571 717.714286 859.428571s146.285714 63.085714 150.742857 142.171429c0.228571 4.8 4.228571 8.685714 9.142857 8.685714H932.571429c5.257143 0 9.371429-4.342857 9.142857-9.485714-3.314286-79.428571-48.228571-148.114286-113.371429-185.257143zM717.714286 602.285714c50.514286 0 91.428571 40.914286 91.428571 91.428572s-40.914286 91.428571-91.428571 91.428571-91.428571-40.914286-91.428572-91.428571 40.914286-91.428571 91.428572-91.428572z" p-id="10046"></path></svg>