<?xml version="1.0" standalone="no"?><!DOCTYPE svg PUBLIC "-//W3C//DTD SVG 1.1//EN" "http://www.w3.org/Graphics/SVG/1.1/DTD/svg11.dtd"><svg t="1666764201226" class="icon" viewBox="0 0 1024 1024" version="1.1" xmlns="http://www.w3.org/2000/svg" p-id="1263" xmlns:xlink="http://www.w3.org/1999/xlink" width="200" height="200"><path d="M752.832 986.688A268.544 268.544 0 1 1 1024 717.376a269.632 269.632 0 0 1-271.168 269.312z m0-469.312a201.216 201.216 0 1 0 202.752 201.152 202.304 202.304 0 0 0-202.752-202.304v1.152zM586.24 329.344h-352a35.2 35.2 0 1 1 0-70.4h353.536a33.856 33.856 0 1 1 0 67.392l-1.536 3.008zM448.64 527.488H234.24a33.856 33.856 0 1 1 0-67.328h214.4a33.856 33.856 0 1 1 0 67.328z" fill="#755DD7" p-id="1264"></path><path d="M610.368 940.8H133.12a123.392 123.392 0 0 1-124.48-123.008V169.472A123.712 123.712 0 0 1 133.12 46.528h631.04a123.712 123.712 0 0 1 124.096 122.944v345.216H820.48V169.472a56.064 56.064 0 0 0-56.384-55.68H133.12a56.064 56.064 0 0 0-56 55.68v648.32c0 30.976 25.088 56.064 56 56.064h477.248V940.8z" fill="#755DD7" p-id="1265"></path><path d="M619.392 949.056H133.12A133.12 133.12 0 0 1 0 816.704V169.472A133.12 133.12 0 0 1 133.12 37.12h631.04a133.12 133.12 0 0 1 133.504 132.352V524.16h-86.528V169.6a46.656 46.656 0 0 0-46.976-47.808H133.12a46.656 46.656 0 0 0-46.656 47.744v648.32c0 25.792 20.928 46.656 46.72 46.656h486.208v84.608zM133.12 55.936c-62.272 0-112.832 50.496-112.832 112.832v649.024c0 62.336 50.56 112.832 112.832 112.832h467.456v-47.36H133.12a65.408 65.408 0 0 1-65.408-65.472V169.472A65.408 65.408 0 0 1 133.12 104.448h631.04c36.032 0 65.408 28.992 65.792 65.024v335.808h48.896V169.472A112.832 112.832 0 0 0 764.16 56.704L133.12 55.936z" fill="#755DD7" p-id="1266"></path><path d="M863.424 776.448h-121.856a32.32 32.32 0 0 1-23.68-9.792 33.472 33.472 0 0 1-10.176-23.68V616.64a33.856 33.856 0 0 1 67.712 0v92.864h88a33.472 33.472 0 0 1 0 66.944z" fill="#755DD7" p-id="1267"></path></svg>