<?xml version="1.0" standalone="no"?><!DOCTYPE svg PUBLIC "-//W3C//DTD SVG 1.1//EN" "http://www.w3.org/Graphics/SVG/1.1/DTD/svg11.dtd"><svg t="1619521893312" class="icon" viewBox="0 0 1024 1024" version="1.1" xmlns="http://www.w3.org/2000/svg" p-id="9779" xmlns:xlink="http://www.w3.org/1999/xlink" width="200" height="200"><defs><style type="text/css"></style></defs><path d="M702.057143 675.885714c27.657143-14.857143 59.314286-23.314286 93.028571-23.314285h0.114286c3.428571 0 5.028571-4.114286 2.514286-6.4a424.765714 424.765714 0 0 0-118.514286-75.2c-0.457143-0.228571-0.914286-0.342857-1.371429-0.571429C748.8 518.857143 794.971429 435.085714 794.971429 340.571429c0-156.571429-126.628571-283.428571-282.857143-283.428572S229.371429 184 229.371429 340.571429c0 94.514286 46.171429 178.285714 117.257142 229.828571-0.457143 0.228571-0.914286 0.342857-1.371428 0.571429-51.085714 21.6-96.914286 52.571429-136.342857 92.114285a426.765714 426.765714 0 0 0-91.885715 136.571429A426.971429 426.971429 0 0 0 83.428571 957.485714a9.142857 9.142857 0 0 0 9.142858 9.371429h68.457142c4.914286 0 9.028571-4 9.142858-8.914286 2.285714-88.228571 37.6-170.857143 100.114285-233.485714C334.857143 659.657143 420.8 624 512.228571 624c64.8 0 126.971429 17.942857 180.571429 51.542857a9.257143 9.257143 0 0 0 9.257143 0.342857zM512.228571 537.142857c-52.342857 0-101.6-20.457143-138.742857-57.6A195.657143 195.657143 0 0 1 316 340.571429c0-52.457143 20.457143-101.828571 57.485714-138.971429S459.771429 144 512.228571 144s101.6 20.457143 138.742858 57.6A195.657143 195.657143 0 0 1 708.457143 340.571429c0 52.457143-20.457143 101.828571-57.485714 138.971428C613.828571 516.685714 564.571429 537.142857 512.228571 537.142857zM932.571429 809.142857H658.285714c-5.028571 0-9.142857 4.114286-9.142857 9.142857v64c0 5.028571 4.114286 9.142857 9.142857 9.142857h274.285715c5.028571 0 9.142857-4.114286 9.142857-9.142857v-64c0-5.028571-4.114286-9.142857-9.142857-9.142857z" p-id="9780"></path></svg>