<?xml version="1.0" standalone="no"?><!DOCTYPE svg PUBLIC "-//W3C//DTD SVG 1.1//EN" "http://www.w3.org/Graphics/SVG/1.1/DTD/svg11.dtd"><svg t="1621581014019" class="icon" viewBox="0 0 1024 1024" version="1.1" xmlns="http://www.w3.org/2000/svg" p-id="1193" xmlns:xlink="http://www.w3.org/1999/xlink" width="200" height="200"><defs><style type="text/css"></style></defs><path d="M934.7 727.2c-16-16-42.1-16-58.1 0L745.5 858.3 696.2 809c-16-16-42.1-16-58.1 0s-16 42.1 0 58.1l75.1 75.1c0.9 1.2 2 2.3 3.1 3.4 8 8 18.6 12 29.2 12 10.6 0 21.2-3.9 29.3-12 1.1-1.1 2.1-2.2 3.1-3.4l156.9-156.9c15.9-16 15.9-42.2-0.1-58.1zM676.2 691.8c22.8 0 41.4-18.5 41.4-41.4 0-17.2-10.5-31.9-25.4-38.2-17.3-10.8-35.6-20.5-54.7-28.9 78.3-54.1 124.6-141.8 124.2-235.2 2.9-100.9-50.8-195.3-140.2-246.6-89.4-51.3-200.3-51.3-289.6 0-89.4 51.3-143 145.7-140.2 246.6-0.4 93.5 46 181.3 124.4 235.2-132 57.8-223.8 178-242.5 317.7-1.4 4.2-2.1 8.6-2.2 13l0.2 3.2 0.2 0.4c-0.5 14.4 7.1 28 19.9 35.3 12.8 7.4 28.6 7.4 41.4 0 12.8-7.4 20.4-20.9 19.9-35.3l-0.2-0.4h0.9C171.1 762.7 300 642.6 459.5 632.3c5.7 0.4 11.4 0.6 17.1 0.6 5.9 0 11.6-0.2 17.3-0.6C551 636.1 604 653.7 649.4 682c7.2 6.1 16.6 9.8 26.8 9.8z m-180.8-141c-6.1-0.2-12.3-0.4-18.4-0.4-6.1 0-12.5 0.2-18.6 0.4-106.2-10.9-186.4-98.6-185.2-202.4 2.9-106.3 91.6-191.4 200.9-192.8 109.3-1.4 200.2 81.5 205.9 187.7 5.7 106.1-75.8 197.8-184.6 207.5z" p-id="1194"></path></svg>