<?xml version="1.0" standalone="no"?><!DOCTYPE svg PUBLIC "-//W3C//DTD SVG 1.1//EN" "http://www.w3.org/Graphics/SVG/1.1/DTD/svg11.dtd"><svg t="1660290669400" class="icon" viewBox="0 0 1024 1024" version="1.1" xmlns="http://www.w3.org/2000/svg" p-id="3527" xmlns:xlink="http://www.w3.org/1999/xlink" width="200" height="200"><defs><style type="text/css">@font-face { font-family: feedback-iconfont; src: url("//at.alicdn.com/t/font_1031158_u69w8yhxdu.woff2?t=1630033759944") format("woff2"), url("//at.alicdn.com/t/font_1031158_u69w8yhxdu.woff?t=1630033759944") format("woff"), url("//at.alicdn.com/t/font_1031158_u69w8yhxdu.ttf?t=1630033759944") format("truetype"); }
</style></defs><path d="M833.828571 0A117.028571 117.028571 0 0 1 950.857143 117.028571v789.942858a117.028571 117.028571 0 0 1-117.028572 117.028571H190.171429A117.028571 117.028571 0 0 1 73.142857 906.971429V117.028571A117.028571 117.028571 0 0 1 190.171429 0h643.657142zM256 512a36.571429 36.571429 0 1 0 0 73.142857 36.571429 36.571429 0 0 0 0-73.142857z m512 0h-365.714286a36.571429 36.571429 0 1 0 0 73.142857h365.714286a36.571429 36.571429 0 1 0 0-73.142857z m0-219.428571h-365.714286a36.571429 36.571429 0 0 0 0 73.142857h365.714286a36.571429 36.571429 0 0 0 0-73.142857z m-512 0a36.571429 36.571429 0 1 0 0 73.142857 36.571429 36.571429 0 0 0 0-73.142857z" fill="#FFFFFF" opacity=".8" p-id="3528"></path></svg>