<?xml version="1.0" standalone="no"?><!DOCTYPE svg PUBLIC "-//W3C//DTD SVG 1.1//EN" "http://www.w3.org/Graphics/SVG/1.1/DTD/svg11.dtd"><svg class="icon" width="64px" height="64.00px" viewBox="0 0 1024 1024" version="1.1" xmlns="http://www.w3.org/2000/svg"><path d="M74.944 205.856c0-37.984 30.368-68.768 68-68.768h614.912c37.568 0 68.032 31.2 68.032 68.768v738.88c0 38.048-30.4 68.832-68.032 68.832H142.944c-37.568 0-68-31.2-68-68.8V205.824z m375.456 399.552a102.4 102.4 0 1 0 0-204.8 102.4 102.4 0 1 0 0 204.8z m0 0c-101.44 0-185.888 70.464-204.8 163.84h409.6c-18.912-93.376-103.36-163.84-204.8-163.84z"  /><path d="M211.456 69.312c0-37.984 30.4-68.768 68-68.768H894.4c37.536 0 68 31.232 68 68.768v738.88c0 38.08-30.4 68.832-68 68.832H279.456c-37.536 0-68-31.168-68-68.8V69.312z m68.256-10.016v760.448h614.4V59.264h-614.4z"  /></svg>