<?xml version="1.0" standalone="no"?><!DOCTYPE svg PUBLIC "-//W3C//DTD SVG 1.1//EN" "http://www.w3.org/Graphics/SVG/1.1/DTD/svg11.dtd"><svg t="1650533383080" class="icon" viewBox="0 0 1024 1024" version="1.1" xmlns="http://www.w3.org/2000/svg" p-id="3273" xmlns:xlink="http://www.w3.org/1999/xlink" width="200" height="200"><defs><style type="text/css">@font-face { font-family: feedback-iconfont; src: url("//at.alicdn.com/t/font_1031158_u69w8yhxdu.woff2?t=1630033759944") format("woff2"), url("//at.alicdn.com/t/font_1031158_u69w8yhxdu.woff?t=1630033759944") format("woff"), url("//at.alicdn.com/t/font_1031158_u69w8yhxdu.ttf?t=1630033759944") format("truetype"); }
</style></defs><path d="M451.876571 131.657143a12.434286 12.434286 0 0 1 12.580572 12.434286v367.762285c0 26.331429 21.211429 47.542857 47.542857 47.542857h361.033143c10.459429 0 18.870857 8.484571 18.870857 18.870858v0.877714a427.885714 427.885714 0 1 1-440.027429-447.414857zM570.806857 36.571429a427.885714 427.885714 0 0 1 416.475429 415.085714 12.434286 12.434286 0 0 1-12.288 12.653714H607.085714a47.542857 47.542857 0 0 1-47.542857-47.542857V47.542857A10.971429 10.971429 0 0 1 570.514286 36.571429h0.292571z" p-id="3274"></path></svg>