<?xml version="1.0" standalone="no"?><!DOCTYPE svg PUBLIC "-//W3C//DTD SVG 1.1//EN" "http://www.w3.org/Graphics/SVG/1.1/DTD/svg11.dtd"><svg t="1650533414415" class="icon" viewBox="0 0 1028 1024" version="1.1" xmlns="http://www.w3.org/2000/svg" p-id="3563" xmlns:xlink="http://www.w3.org/1999/xlink" width="200.78125" height="200"><defs><style type="text/css">@font-face { font-family: feedback-iconfont; src: url("//at.alicdn.com/t/font_1031158_u69w8yhxdu.woff2?t=1630033759944") format("woff2"), url("//at.alicdn.com/t/font_1031158_u69w8yhxdu.woff?t=1630033759944") format("woff"), url("//at.alicdn.com/t/font_1031158_u69w8yhxdu.ttf?t=1630033759944") format("truetype"); }
</style></defs><path d="M52.1856 416H148.270933a48.042667 48.042667 0 1 0 0-96.085333H52.1856a48.042667 48.042667 0 1 0 0 96.085333z m143.957333 239.957333a48.042667 48.042667 0 0 0-48.042666-48.042666H52.100267a48.042667 48.042667 0 1 0 0 96.085333h96a48.213333 48.213333 0 0 0 48.042666-48.042667z" p-id="3564"></path><path d="M964.0576 0H164.142933a64 64 0 0 0-64 64v239.957333h48.042667a64 64 0 0 1 0 128h-48.042667v159.914667h48.042667a64 64 0 0 1 0 128h-48.042667v239.872c0 35.328 28.672 64 64 64h799.914667a64 64 0 0 0 64-64V64a64 64 0 0 0-64-64zM579.630933 892.928c-19.285333 0-181.248-88.405333-181.248-112.384 0-23.893333 126.037333-455.253333 126.037334-455.253333l-103.253334-128.426667s-15.189333-28.501333 30.378667-28.501333h257.962667c45.568 0 22.784 28.501333 22.784 28.501333L634.670933 325.290667s125.952 433.92 125.952 455.253333c0.170667 21.333333-161.792 112.384-180.992 112.384z m208.981334-313.173333l-34.474667 49.664L661.9776 332.970667l127.744 212.053333a35.498667 35.498667 0 0 1-1.194667 34.730667z" p-id="3565"></path></svg>