<?xml version="1.0" standalone="no"?><!DOCTYPE svg PUBLIC "-//W3C//DTD SVG 1.1//EN" "http://www.w3.org/Graphics/SVG/1.1/DTD/svg11.dtd"><svg t="1650533428510" class="icon" viewBox="0 0 1024 1024" version="1.1" xmlns="http://www.w3.org/2000/svg" p-id="3709" xmlns:xlink="http://www.w3.org/1999/xlink" width="200" height="200"><defs><style type="text/css">@font-face { font-family: feedback-iconfont; src: url("//at.alicdn.com/t/font_1031158_u69w8yhxdu.woff2?t=1630033759944") format("woff2"), url("//at.alicdn.com/t/font_1031158_u69w8yhxdu.woff?t=1630033759944") format("woff"), url("//at.alicdn.com/t/font_1031158_u69w8yhxdu.ttf?t=1630033759944") format("truetype"); }
</style></defs><path d="M714.788571 0c37.668571 0 68.315429 29.622857 68.315429 66.194286v218.989714c-5.705143-0.731429-12.141714-0.731429-17.846857-0.731429-106.715429 0-192.804571 77.238857-192.804572 179.931429 0 57.782857 28.452571 112.274286 75.410286 147.456 1.462857 30.281143-1.316571 89.526857-44.836571 111.542857h-60.416c-41.252571 0-74.678857 32.402286-74.678857 72.338286v143.36H104.923429c-37.741714 0-68.315429-29.622857-68.315429-66.194286V66.121143C36.608 29.696 67.181714 0 104.923429 0h609.865142z m-368.64 475.428571H191.670857a32.475429 32.475429 0 0 0-31.963428 31.670858 31.451429 31.451429 0 0 0 31.963428 31.670857h154.331429c17.627429 0 31.963429-14.116571 32.109714-31.670857a31.597714 31.597714 0 0 0-31.963429-31.744z m83.309715-158.500571H191.670857a31.451429 31.451429 0 0 0-31.963428 31.012571c0 17.188571 14.116571 31.012571 31.963428 31.012572h237.714286a31.451429 31.451429 0 0 0 31.963428-31.012572 31.451429 31.451429 0 0 0-31.963428-31.012571z m128-159.158857h-365.714286a31.451429 31.451429 0 0 0-31.963429 31.012571c0 17.188571 14.116571 31.012571 31.963429 31.012572h365.714286a31.451429 31.451429 0 0 0 32.109714-31.012572 31.451429 31.451429 0 0 0-32.036571-31.012571z" p-id="3710"></path><path d="M776.813714 366.592c50.541714 3.364571 93.915429 39.277714 105.325715 87.478857a112.64 112.64 0 0 1-48.347429 119.808l-11.483429 6.948572-1.316571 13.019428c-5.12 37.888-13.604571 163.986286 91.794286 205.458286l5.632 1.974857h55.515428c7.826286 0 13.531429 6.144 13.531429 13.092571v123.318858c0 13.165714-4.973714 14.482286-11.337143 14.482285H563.968a13.312 13.312 0 0 1-13.531429-13.092571v-124.708572c0-7.533714 6.436571-13.165714 13.604572-13.165714h61.878857l4.973714-1.974857c108.836571-42.715429 96.036571-175.689143 92.452572-201.874286l-2.048-13.824-12.141715-6.875428a113.590857 113.590857 0 0 1-57.636571-97.133715c0-62.683429 52.662857-113.005714 116.662857-113.005714h8.557714v0.073143z" p-id="3711"></path></svg>