<?xml version="1.0" standalone="no"?><!DOCTYPE svg PUBLIC "-//W3C//DTD SVG 1.1//EN" "http://www.w3.org/Graphics/SVG/1.1/DTD/svg11.dtd"><svg t="1650533437421" class="icon" viewBox="0 0 1102 1024" version="1.1" xmlns="http://www.w3.org/2000/svg" p-id="3855" xmlns:xlink="http://www.w3.org/1999/xlink" width="215.234375" height="200"><defs><style type="text/css">@font-face { font-family: feedback-iconfont; src: url("//at.alicdn.com/t/font_1031158_u69w8yhxdu.woff2?t=1630033759944") format("woff2"), url("//at.alicdn.com/t/font_1031158_u69w8yhxdu.woff?t=1630033759944") format("woff"), url("//at.alicdn.com/t/font_1031158_u69w8yhxdu.ttf?t=1630033759944") format("truetype"); }
</style></defs><path d="M1050.308923 0H49.939692A50.018462 50.018462 0 0 0 0 49.939692V700.258462c0 27.648 22.370462 49.939692 49.939692 49.939692h450.087385v100.036923H250.013538a50.018462 50.018462 0 0 0 0 100.036923h600.221539a49.939692 49.939692 0 0 0 0-100.036923H600.221538v-100.036923h450.087385a49.939692 49.939692 0 0 0 49.939692-49.939692V49.939692A49.782154 49.782154 0 0 0 1050.308923 0zM400.147692 525.075692a49.939692 49.939692 0 1 1-99.958154 0v-100.036923a50.018462 50.018462 0 0 1 100.036924 0v100.036923z m200.073846 0a49.939692 49.939692 0 1 1-100.036923 0v-200.073846a50.018462 50.018462 0 0 1 100.036923 0v200.073846z m200.073847 0a49.939692 49.939692 0 1 1-100.036923 0V225.122462a50.018462 50.018462 0 0 1 100.036923 0v299.95323z" p-id="3856"></path></svg>