<?xml version="1.0" standalone="no"?><!DOCTYPE svg PUBLIC "-//W3C//DTD SVG 1.1//EN" "http://www.w3.org/Graphics/SVG/1.1/DTD/svg11.dtd"><svg class="icon" width="64px" height="64.00px" viewBox="0 0 1024 1024" version="1.1" xmlns="http://www.w3.org/2000/svg"><path d="M256 32h516a96 96 0 0 1 95.84 90.368l0.16 5.632v535.456l-204.16-0.448a64.032 64.032 0 0 0-63.68 59.52l-0.16 4.768 0.416 244L256 971.328a96 96 0 0 1-95.84-90.368L160 875.328V128a96 96 0 0 1 90.368-95.84L256 32h516H256z m408 695.04l188.928 0.384-188.544 224.128-0.384-224.544z m-92.8-318.72h-241.088l-3.712 0.224a32 32 0 0 0 0 63.552l3.712 0.224h241.088l3.744-0.224a32 32 0 0 0 0-63.552l-3.744-0.224z m128-157.344H330.112l-3.712 0.224a32 32 0 0 0 0 63.552l3.712 0.224H699.2l3.744-0.224a32 32 0 0 0 0-63.552l-3.744-0.224z" /></svg>