<?xml version="1.0" standalone="no"?><!DOCTYPE svg PUBLIC "-//W3C//DTD SVG 1.1//EN" "http://www.w3.org/Graphics/SVG/1.1/DTD/svg11.dtd"><svg t="1601022014351" class="icon" viewBox="0 0 1024 1024" version="1.1" xmlns="http://www.w3.org/2000/svg" p-id="3517" width="128" height="128" xmlns:xlink="http://www.w3.org/1999/xlink"><defs><style type="text/css"></style></defs><path d="M827.5 649.3l23.1 23.1h-242c-17.7 0-32 14.4-32 32.1s14.3 32.1 32 32.1h242l-23.1 23.1c-12.5 12.5-12.5 32.8 0 45.4 6.3 6.3 14.5 9.4 22.7 9.4s16.4-3.1 22.7-9.4l77.8-77.9c0.4-0.4 0.7-0.8 1.1-1.2 0.1-0.2 0.3-0.3 0.4-0.5 0.2-0.2 0.4-0.4 0.6-0.7 0.2-0.2 0.4-0.5 0.6-0.7 0.1-0.2 0.3-0.3 0.4-0.5 0.2-0.3 0.4-0.5 0.6-0.8 0.1-0.2 0.2-0.3 0.3-0.5 0.2-0.3 0.4-0.6 0.5-0.9 0.1-0.2 0.2-0.3 0.3-0.5 0.2-0.3 0.3-0.6 0.5-0.9 0.1-0.2 0.2-0.3 0.3-0.5 0.1-0.3 0.3-0.5 0.4-0.8l0.3-0.6c0.1-0.2 0.2-0.5 0.3-0.8 0.1-0.2 0.2-0.5 0.3-0.7 0.1-0.2 0.2-0.4 0.3-0.7 0.1-0.3 0.2-0.5 0.3-0.8 0.1-0.2 0.1-0.4 0.2-0.6l0.3-0.9c0.1-0.2 0.1-0.3 0.1-0.5 0.1-0.3 0.2-0.7 0.3-1 0-0.2 0.1-0.3 0.1-0.5 0.1-0.3 0.2-0.7 0.2-1 0-0.2 0.1-0.3 0.1-0.5 0.1-0.3 0.1-0.7 0.2-1 0-0.2 0-0.4 0.1-0.6 0-0.3 0.1-0.6 0.1-1 0-0.3 0-0.5 0.1-0.8 0-0.3 0-0.5 0.1-0.8v-1.4-0.2-0.2-1.4c0-0.3 0-0.5-0.1-0.8 0-0.3 0-0.5-0.1-0.8 0-0.3-0.1-0.7-0.1-1 0-0.2 0-0.4-0.1-0.6-0.1-0.3-0.1-0.7-0.2-1 0-0.2-0.1-0.3-0.1-0.5-0.1-0.3-0.1-0.7-0.2-1 0-0.2-0.1-0.3-0.1-0.5-0.1-0.3-0.2-0.7-0.3-1 0-0.2-0.1-0.3-0.1-0.5l-0.3-0.9c-0.1-0.2-0.1-0.4-0.2-0.6-0.1-0.3-0.2-0.5-0.3-0.8-0.1-0.2-0.2-0.5-0.3-0.7-0.1-0.2-0.2-0.5-0.3-0.7-0.1-0.3-0.2-0.5-0.3-0.8l-0.3-0.6c-0.1-0.3-0.3-0.5-0.4-0.8-0.1-0.2-0.2-0.3-0.3-0.5-0.2-0.3-0.3-0.6-0.5-0.9-0.1-0.2-0.2-0.3-0.3-0.5-0.2-0.3-0.4-0.6-0.5-0.9-0.1-0.2-0.2-0.3-0.3-0.5-0.2-0.3-0.4-0.5-0.6-0.8-0.1-0.2-0.3-0.3-0.4-0.5-0.2-0.2-0.4-0.5-0.6-0.7-0.2-0.2-0.4-0.4-0.6-0.7-0.1-0.2-0.3-0.3-0.4-0.5-0.4-0.4-0.7-0.8-1.1-1.2L872.8 604c-12.5-12.5-32.8-12.5-45.3 0s-12.5 32.8 0 45.3zM641.5 287.5c0-17.7-14.3-32.1-32-32.1H225.8c-17.7 0-32 14.4-32 32.1 0 17.7 14.3 32.1 32 32.1h383.8c17.6-0.1 31.9-14.4 31.9-32.1zM641.5 479.9c0-17.7-14.3-32.1-32-32.1H225.8c-17.7 0-32 14.4-32 32.1 0 17.7 14.3 32.1 32 32.1h383.8c17.6 0 31.9-14.4 31.9-32.1zM225.8 640.3c-17.7 0-32 14.4-32 32.1 0 17.7 14.3 32.1 32 32.1h191.9c17.7 0 32-14.4 32-32.1 0-17.7-14.3-32.1-32-32.1H225.8z" p-id="3518"></path><path d="M607.9 864.8H159.8c-17.6 0-31.9-14.4-31.9-32.1V191.2c0-17.7 14.3-32.1 31.9-32.1H674c17.6 0 31.9 14.4 31.9 32.1V512c0 17.7 14.3 32.1 31.9 32.1 17.6 0 31.9-14.4 31.9-32.1V159.2c0-35.4-28.6-64.2-63.9-64.2h-578C92.6 95 64 123.7 64 159.2v705.7c0 35.4 28.6 64.2 63.9 64.2h480c17.6 0 31.9-14.4 31.9-32.1 0.1-17.8-14.2-32.2-31.9-32.2z" p-id="3519"></path><path d="M512.2 800c0 17.7 14.3 32.1 32 32.1h64.1c17.7 0 32-14.4 32-32.1 0-17.7-14.3-32.1-32-32.1h-64.1c-17.7 0.1-32 14.4-32 32.1z" p-id="3520"></path></svg>