<?xml version="1.0" standalone="no"?><!DOCTYPE svg PUBLIC "-//W3C//DTD SVG 1.1//EN" "http://www.w3.org/Graphics/SVG/1.1/DTD/svg11.dtd"><svg t="1660290466896" class="icon" viewBox="0 0 1210 1024" version="1.1" xmlns="http://www.w3.org/2000/svg" p-id="3226" xmlns:xlink="http://www.w3.org/1999/xlink" width="236.328125" height="200"><defs><style type="text/css">@font-face { font-family: feedback-iconfont; src: url("//at.alicdn.com/t/font_1031158_u69w8yhxdu.woff2?t=1630033759944") format("woff2"), url("//at.alicdn.com/t/font_1031158_u69w8yhxdu.woff?t=1630033759944") format("woff"), url("//at.alicdn.com/t/font_1031158_u69w8yhxdu.ttf?t=1630033759944") format("truetype"); }
</style></defs><path d="M1114.018909 417.047273H890.135273a46.452364 46.452364 0 0 0-45.893818 46.266182v14.522181c0 25.413818 20.666182 46.08 46.08 46.08h223.697454a45.986909 45.986909 0 0 0 45.893818-46.08v-14.429091a46.452364 46.452364 0 0 0-45.893818-46.266181zM594.944 21.224727c-69.725091 55.389091-215.319273 132.933818-320.139636 207.592728h-0.093091c-1.210182 0.930909-2.327273 5.026909-3.723637 5.678545-12.288 6.981818-17.873455 26.065455-85.178181 26.065455H54.551273c-33.792 0-54.551273 15.825455-54.551273 51.479272v316.229818c0 35.560727 19.083636 53.061818 54.551273 53.061819h131.816727c66.932364 0.186182 72.331636 19.269818 84.712727 26.158545 1.117091 0.651636 2.327273 4.840727 3.537455 5.585455h0.093091c101.655273 74.752 248.180364 158.254545 320.232727 211.409454 21.690182 16.011636 93.649455 44.125091 93.649455-54.644363V71.866182c0-98.955636-72.610909-67.304727-93.649455-50.734546zM801.512727 239.243636c11.915636 20.852364 35.374545 26.251636 52.596364 11.636364L1037.963636 95.883636c17.221818-14.429091 21.410909-43.194182 9.588364-64.232727l-6.795636-11.822545c-11.822545-20.852364-35.374545-26.065455-52.596364-11.636364L804.398545 163.188364c-17.128727 14.522182-21.410909 43.101091-9.588363 64.232727l6.702545 11.822545z m52.410182 451.490909c-17.128727-14.522182-40.680727-9.216-52.503273 11.636364l-6.702545 11.822546c-11.822545 20.945455-7.540364 49.617455 9.588364 64.232727l183.854545 155.089454c17.128727 14.429091 40.680727 9.309091 52.503273-11.729454l6.795636-11.822546c11.822545-20.852364 7.447273-49.617455-9.681454-64.232727L854.016 690.734545z" fill="#FFFFFF" opacity=".8" p-id="3227"></path></svg>