<?xml version="1.0" standalone="no"?><!DOCTYPE svg PUBLIC "-//W3C//DTD SVG 1.1//EN" "http://www.w3.org/Graphics/SVG/1.1/DTD/svg11.dtd"><svg t="1650533407302" class="icon" viewBox="0 0 1024 1024" version="1.1" xmlns="http://www.w3.org/2000/svg" p-id="3418" xmlns:xlink="http://www.w3.org/1999/xlink" width="200" height="200"><defs><style type="text/css">@font-face { font-family: feedback-iconfont; src: url("//at.alicdn.com/t/font_1031158_u69w8yhxdu.woff2?t=1630033759944") format("woff2"), url("//at.alicdn.com/t/font_1031158_u69w8yhxdu.woff?t=1630033759944") format("woff"), url("//at.alicdn.com/t/font_1031158_u69w8yhxdu.ttf?t=1630033759944") format("truetype"); }
</style></defs><path d="M768 36.571429a146.285714 146.285714 0 0 1 146.285714 146.285714v658.285714a146.285714 146.285714 0 0 1-146.285714 146.285714H256a146.285714 146.285714 0 0 1-146.285714-146.285714v-658.285714a146.285714 146.285714 0 0 1 146.285714-146.285714h512z m-109.714286 658.285714h-292.571428a36.571429 36.571429 0 1 0 0 73.142857h292.571428a36.571429 36.571429 0 1 0 0-73.142857zM494.445714 267.702857l-37.010285 87.259429a19.090286 19.090286 0 0 1-15.945143 11.556571l-94.793143 8.045714a19.163429 19.163429 0 0 0-10.971429 33.645715l71.899429 62.171428a19.163429 19.163429 0 0 1 6.144 18.797715l-21.577143 92.525714a19.163429 19.163429 0 0 0 28.525714 20.699428l81.408-49.005714a19.236571 19.236571 0 0 1 19.748572 0l81.334857 49.005714a19.163429 19.163429 0 0 0 28.525714-20.626285l-21.504-92.525715a19.163429 19.163429 0 0 1 6.144-18.797714l71.826286-62.171428a19.163429 19.163429 0 0 0-10.898286-33.645715l-94.646857-8.045714a19.090286 19.090286 0 0 1-16.018286-11.702857L529.700571 267.702857a19.163429 19.163429 0 0 0-35.254857 0z" p-id="3419"></path></svg>