<?xml version="1.0" standalone="no"?><!DOCTYPE svg PUBLIC "-//W3C//DTD SVG 1.1//EN" "http://www.w3.org/Graphics/SVG/1.1/DTD/svg11.dtd"><svg class="icon" width="64px" height="64.00px" viewBox="0 0 1024 1024" version="1.1" xmlns="http://www.w3.org/2000/svg"><path d="M682.666667 85.333333l213.333333 213.333334v597.674666a42.368 42.368 0 0 1-42.368 42.325334H170.368A42.666667 42.666667 0 0 1 128 896.341333V127.658667C128 104.277333 146.986667 85.333333 170.368 85.333333H682.666667z m-105.429334 531.029334l94.293334 94.293333 60.373333-60.288-94.293333-94.293333a170.752 170.752 0 0 0-267.776-207.402667 170.666667 170.666667 0 0 0 207.402666 267.690667z m-26.368-86.698667a85.333333 85.333333 0 1 1-120.661333-120.661333 85.333333 85.333333 0 0 1 120.661333 120.661333z" /></svg>