<?xml version="1.0" standalone="no"?><!DOCTYPE svg PUBLIC "-//W3C//DTD SVG 1.1//EN" "http://www.w3.org/Graphics/SVG/1.1/DTD/svg11.dtd"><svg t="1660707366615" class="icon" viewBox="0 0 1024 1024" version="1.1" xmlns="http://www.w3.org/2000/svg" p-id="2654" xmlns:xlink="http://www.w3.org/1999/xlink" width="200" height="200"><defs><style type="text/css">@font-face { font-family: feedback-iconfont; src: url("//at.alicdn.com/t/font_1031158_u69w8yhxdu.woff2?t=1630033759944") format("woff2"), url("//at.alicdn.com/t/font_1031158_u69w8yhxdu.woff?t=1630033759944") format("woff"), url("//at.alicdn.com/t/font_1031158_u69w8yhxdu.ttf?t=1630033759944") format("truetype"); }
</style></defs><path d="M624.941176 0l101.797648 104.628706v118.422588H297.984V99.629176L399.841882 0h225.099294zM512 51.802353a62.524235 62.524235 0 1 0 0 125.108706 62.524235 62.524235 0 0 0 0-125.048471z" p-id="2655"></path><path d="M216.485647 126.915765c17.468235 0 31.503059 14.095059 31.503059 31.503059v143.600941h527.962353V158.418824c0-17.468235 14.155294-31.503059 31.563294-31.503059h64.451765c17.468235 0 31.563294 14.095059 31.563294 31.503059v777.577411a31.503059 31.503059 0 0 1-31.503059 31.503059H151.973647A31.503059 31.503059 0 0 1 120.470588 936.056471V158.358588c0-17.347765 14.095059-31.442824 31.503059-31.442823h64.512zM729.449412 745.110588H426.465882a31.503059 31.503059 0 0 0-31.081411 25.840941l-0.481883 5.662118v25.298824c0 15.540706 11.143529 28.370824 25.840941 31.081411l5.662118 0.481883h303.043765c15.480471 0 28.370824-11.143529 31.021176-25.901177l0.542118-5.601882v-25.359059a31.503059 31.503059 0 0 0-25.901177-31.021176l-5.662117-0.481883z m-418.816 0a44.212706 44.212706 0 1 0 0 88.365177 44.212706 44.212706 0 0 0 0-88.365177z m416.587294-155.708235h-302.98353a31.503059 31.503059 0 0 0-31.081411 25.901176l-0.481883 5.601883v25.359059c0 15.480471 11.143529 28.310588 25.901177 31.021176l5.601882 0.542118h303.043765c15.480471 0 28.370824-11.143529 31.021176-25.901177l0.542118-5.662117v-25.298824a31.503059 31.503059 0 0 0-25.901176-31.081412l-5.662118-0.481882z m-418.816 0a44.212706 44.212706 0 1 0 0 88.425412 44.212706 44.212706 0 0 0 0-88.425412zM307.2 434.898824a44.212706 44.212706 0 1 0 0 88.425411 44.212706 44.212706 0 0 0 0-88.425411z m418.876235 0H423.032471a31.503059 31.503059 0 0 0-31.021177 25.901176l-0.542118 5.601882v25.359059c0 15.480471 11.203765 28.310588 25.901177 31.021177l5.662118 0.542117h303.043764c15.480471 0 28.310588-11.203765 31.021177-25.901176l0.481882-5.662118v-25.298823a31.503059 31.503059 0 0 0-25.840941-31.081412l-5.662118-0.481882z" p-id="2656"></path></svg>