<?xml version="1.0" standalone="no"?><!DOCTYPE svg PUBLIC "-//W3C//DTD SVG 1.1//EN" "http://www.w3.org/Graphics/SVG/1.1/DTD/svg11.dtd"><svg t="1650532957222" class="icon" viewBox="0 0 1194 1024" version="1.1" xmlns="http://www.w3.org/2000/svg" p-id="3126" xmlns:xlink="http://www.w3.org/1999/xlink" width="233.203125" height="200"><defs><style type="text/css">@font-face { font-family: feedback-iconfont; src: url("//at.alicdn.com/t/font_1031158_u69w8yhxdu.woff2?t=1630033759944") format("woff2"), url("//at.alicdn.com/t/font_1031158_u69w8yhxdu.woff?t=1630033759944") format("woff"), url("//at.alicdn.com/t/font_1031158_u69w8yhxdu.ttf?t=1630033759944") format("truetype"); }
</style></defs><path d="M597.333333 51.2a273.066667 273.066667 0 0 0-272.554666 272.554667A273.066667 273.066667 0 0 0 597.333333 596.309333a273.066667 273.066667 0 0 0 272.554667-272.554666C871.594667 173.568 749.141333 51.2 597.333333 51.2z" p-id="3127"></path><path d="M597.333333 544.085333a393.557333 393.557333 0 0 0-393.386666 393.386667c0 14.592 13.141333 27.648 27.818666 27.648h731.136a28.586667 28.586667 0 0 0 27.733334-27.733333C992.426667 720.384 814.421333 544.085333 597.333333 544.085333z" p-id="3128"></path><path d="M980.906667 565.333333a216.490667 216.490667 0 0 0 117.504-192.597333 218.368 218.368 0 0 0-217.088-218.709333 325.973333 325.973333 0 0 1 47.36 171.349333c0 88.149333-34.304 169.813333-93.013334 230.144a453.802667 453.802667 0 0 1 210.517334 331.264h125.610666a22.272 22.272 0 0 0 22.869334-22.784 315.989333 315.989333 0 0 0-213.76-298.666667zM359.082667 553.813333a328.704 328.704 0 0 1-93.013334-230.144c0-62.037333 17.92-120.746667 47.274667-171.349333a217.344 217.344 0 0 0-217.088 218.709333c0 83.2 47.36 156.672 117.504 192.512A315.989333 315.989333 0 0 0 0 862.293333c0 13.056 9.813333 22.869333 22.869333 22.869334H148.48a453.802667 453.802667 0 0 1 210.602667-331.264z" p-id="3129"></path></svg>