<?xml version="1.0" encoding="UTF-8"?>
<svg width="23px" height="18px" viewBox="0 0 23 18" version="1.1" xmlns="http://www.w3.org/2000/svg" xmlns:xlink="http://www.w3.org/1999/xlink">
    <title>极光- logo</title>
    <defs>
        <linearGradient x1="50%" y1="100%" x2="50%" y2="0%" id="linearGradient-1">
            <stop stop-color="#BDB5FF" offset="0%"></stop>
            <stop stop-color="#6657E2" offset="100%"></stop>
        </linearGradient>
        <linearGradient x1="50%" y1="0%" x2="50%" y2="100%" id="linearGradient-2">
            <stop stop-color="#B3A9FF" offset="0%"></stop>
            <stop stop-color="#6B5CE7" offset="100%"></stop>
        </linearGradient>
    </defs>
    <g id="极光v3.5" stroke="none" stroke-width="1" fill="none" fill-rule="evenodd">
        <g id="主播管理-主播列表直播" transform="translate(-32.000000, -25.000000)">
            <g id="编组" transform="translate(32.000000, 24.000000)">
                <g id="极光--logo" transform="translate(0.000000, 1.000000)">
                    <g id="Group-2">
                        <path d="M6.30344477,9.99116653 C5.47381545,11.3151979 4.28309092,12.2401603 3.24032895,12.7822734 C3.24032895,12.7822734 4.0613407,17.5578793 4.14600221,17.9741158 C5.39101737,17.7957034 7.20791676,17.1627024 8.71298776,15.5351325 C9.3022218,13.4183454 8.5752461,11.0726928 6.30344477,9.99116653 Z" id="Path-6-Copy" fill="url(#linearGradient-1)" opacity="0.699999988"></path>
                        <path d="M2.1016282,9.03157895 C2.1016282,9.03157895 0.0374907888,0.0367147136 0.0374907888,0.0367147136 C4.77077577,0.349226172 8.6356757,3.4537861 10.0908055,6.46194831 C11.5459353,9.47011053 10.9382053,13.2127492 8.6356757,15.617688 C9.20329323,13.196208 7.94810637,11.0949315 6.4770585,10.2053608 C5.00601064,9.3157901 3.66679937,9.00989009 2.1016282,9.03157895 Z" id="Path-5" fill="url(#linearGradient-2)"></path>
                    </g>
                    <g id="Group-2" transform="translate(16.935538, 9.000000) scale(-1, 1) translate(-16.935538, -9.000000) translate(11.435538, 0.000000)">
                        <path d="M6.30344477,9.99116653 C5.47381545,11.3151979 4.28309092,12.2401603 3.24032895,12.7822734 C3.24032895,12.7822734 4.0613407,17.5578793 4.14600221,17.9741158 C5.39101737,17.7957034 7.20791676,17.1627024 8.71298776,15.5351325 C9.3022218,13.4183454 8.5752461,11.0726928 6.30344477,9.99116653 Z" id="Path-6-Copy" fill="url(#linearGradient-1)" opacity="0.699999988"></path>
                        <path d="M2.1016282,9.03157895 C2.1016282,9.03157895 0.0374907888,0.0367147136 0.0374907888,0.0367147136 C4.77077577,0.349226172 8.6356757,3.4537861 10.0908055,6.46194831 C11.5459353,9.47011053 10.9382053,13.2127492 8.6356757,15.617688 C9.20329323,13.196208 7.94810637,11.0949315 6.4770585,10.2053608 C5.00601064,9.3157901 3.66679937,9.00989009 2.1016282,9.03157895 Z" id="Path-5" fill="url(#linearGradient-2)"></path>
                    </g>
                </g>
            </g>
        </g>
    </g>
</svg>